<svg viewBox="0 0 1280 800" width="100%" height="100%" xmlns="http://www.w3.org/2000/svg" font-family="Inter, system-ui, -apple-system, sans-serif">
  <defs>
    <linearGradient id="bg" x1="0" y1="0" x2="0" y2="1">
      <stop offset="0" stop-color="#eef1f8"/>
      <stop offset="1" stop-color="#e4e8f3"/>
    </linearGradient>
    <filter id="sh" x="-20%" y="-20%" width="140%" height="140%">
      <feDropShadow dx="0" dy="8" stdDeviation="14" flood-color="#1f2650" flood-opacity="0.10"/>
    </filter>
    <clipPath id="av1"><circle cx="0" cy="0" r="18"/></clipPath>
  </defs>

  <!-- background -->
  <rect width="1280" height="800" fill="url(#bg)"/>

  <!-- ================= SIDEBAR ================= -->
  <rect x="0" y="0" width="240" height="800" fill="#ffffff"/>
  <line x1="240" y1="0" x2="240" y2="800" stroke="#e7eaf2" stroke-width="1"/>

  <!-- logo -->
  <g transform="translate(28,34)">
    <rect x="0" y="0" width="36" height="36" rx="10" fill="#f472b6"/>
    <g stroke="#ffffff" stroke-width="2" fill="none" stroke-linecap="round" stroke-linejoin="round">
      <path d="M11 25 L11 11"/>
      <path d="M11 18 L18 11"/>
      <path d="M14 21 L20 27"/>
    </g>
    <text x="48" y="18" font-size="17" font-weight="700" fill="#0d1320">KPU</text>
    <text x="48" y="32" font-size="10" font-weight="500" fill="#8b92a4" letter-spacing="0.6">KOTA SERANG</text>
  </g>

  <!-- nav -->
  <g transform="translate(20,112)">
    <!-- Dashboard active -->
    <rect x="0" y="0" width="200" height="44" rx="11" fill="#f472b6" fill-opacity="0.14"/>
    <g transform="translate(16,12)" stroke="#f472b6" stroke-width="2" fill="none" stroke-linecap="round" stroke-linejoin="round">
      <rect x="0" y="0" width="8" height="8" rx="1.5"/>
      <rect x="12" y="0" width="8" height="8" rx="1.5"/>
      <rect x="0" y="12" width="8" height="8" rx="1.5"/>
      <rect x="12" y="12" width="8" height="8" rx="1.5"/>
    </g>
    <text x="54" y="28" font-size="13.5" font-weight="600" fill="#f472b6">Dashboard</text>

    <!-- Laporan -->
    <g transform="translate(16,68)" stroke="#8b92a4" stroke-width="2" fill="none" stroke-linecap="round" stroke-linejoin="round">
      <path d="M3 0 H14 L20 6 V20 H3 Z"/>
      <path d="M14 0 V6 H20"/>
      <path d="M7 11 H15"/>
      <path d="M7 15 H13"/>
    </g>
    <text x="54" y="84" font-size="13.5" font-weight="500" fill="#8b92a4">Laporan</text>

    <!-- Absensi -->
    <g transform="translate(16,124)" stroke="#8b92a4" stroke-width="2" fill="none" stroke-linecap="round" stroke-linejoin="round">
      <rect x="2" y="2" width="18" height="18" rx="3"/>
      <path d="M2 8 H20"/>
      <path d="M7 0 V4"/>
      <path d="M15 0 V4"/>
      <path d="M7 14 l2.4 2.4 L14 12"/>
    </g>
    <text x="54" y="140" font-size="13.5" font-weight="500" fill="#8b92a4">Absensi</text>

    <!-- Anggota -->
    <g transform="translate(16,180)" stroke="#8b92a4" stroke-width="2" fill="none" stroke-linecap="round" stroke-linejoin="round">
      <circle cx="8" cy="6" r="4"/>
      <path d="M1 21 c0-5 3-8 7-8 s7 3 7 8"/>
      <circle cx="18" cy="7" r="3"/>
      <path d="M16 21 c0-4 2-6 5-6"/>
    </g>
    <text x="54" y="196" font-size="13.5" font-weight="500" fill="#8b92a4">Anggota</text>

    <!-- Pengaturan -->
    <g transform="translate(16,236)" stroke="#8b92a4" stroke-width="2" fill="none" stroke-linecap="round" stroke-linejoin="round">
      <circle cx="11" cy="11" r="3.4"/>
      <path d="M11 1 v3 M11 18 v3 M1 11 h3 M18 11 h3 M4 4 l2.2 2.2 M15.8 15.8 l2.2 2.2 M18 4 l-2.2 2.2 M6.2 15.8 l-2.2 2.2"/>
    </g>
    <text x="54" y="252" font-size="13.5" font-weight="500" fill="#8b92a4">Pengaturan</text>
  </g>

  <!-- sidebar footer user -->
  <g transform="translate(20,724)">
    <rect x="0" y="0" width="200" height="52" rx="12" fill="#f6f7fb"/>
    <circle cx="30" cy="26" r="16" fill="#f472b6" fill-opacity="0.18"/>
    <g transform="translate(30,26)" stroke="#f472b6" stroke-width="2" fill="none" stroke-linecap="round">
      <circle cx="0" cy="-3" r="4"/>
      <path d="M-6 9 c0-4 3-6 6-6 s6 2 6 6"/>
    </g>
    <text x="56" y="23" font-size="12" font-weight="600" fill="#0d1320">Admin KPU</text>
    <text x="56" y="38" font-size="10.5" fill="#8b92a4">Operator</text>
  </g>

  <!-- ================= TOP BAR ================= -->
  <g transform="translate(240,0)">
    <text x="40" y="56" font-size="22" font-weight="700" fill="#0d1320">KPU Kota Serang</text>
    <text x="40" y="78" font-size="12.5" fill="#8b92a4">Ringkasan kegiatan dan kehadiran anggota</text>

    <!-- search -->
    <g transform="translate(520,32)">
      <rect x="0" y="0" width="270" height="44" rx="11" fill="#ffffff" stroke="#e7eaf2" stroke-width="1"/>
      <g transform="translate(18,15)" stroke="#aeb4c4" stroke-width="2" fill="none" stroke-linecap="round">
        <circle cx="6" cy="6" r="5.5"/>
        <path d="M10.5 10.5 L15 15"/>
      </g>
      <text x="44" y="28" font-size="12.5" fill="#aeb4c4">Cari laporan, anggota...</text>
    </g>

    <!-- date pill -->
    <g transform="translate(810,32)">
      <rect x="0" y="0" width="150" height="44" rx="11" fill="#ffffff" stroke="#e7eaf2" stroke-width="1"/>
      <g transform="translate(18,14)" stroke="#8b92a4" stroke-width="2" fill="none" stroke-linecap="round" stroke-linejoin="round">
        <rect x="0" y="2" width="16" height="14" rx="2.5"/>
        <path d="M0 6 H16 M4 0 V4 M12 0 V4"/>
      </g>
      <text x="44" y="28" font-size="12.5" font-weight="500" fill="#0d1320">Jun 2026</text>
    </g>

    <!-- avatar -->
    <g transform="translate(984,54)">
      <circle cx="0" cy="0" r="22" fill="#f472b6" fill-opacity="0.16"/>
      <g clip-path="url(#av1)">
        <circle cx="0" cy="0" r="18" fill="#fde7f1"/>
        <circle cx="0" cy="-4" r="7" fill="#f472b6"/>
        <path d="M-13 18 c0-9 6-13 13-13 s13 4 13 13 Z" fill="#f472b6"/>
      </g>
      <circle cx="0" cy="0" r="22" fill="none" stroke="#ffffff" stroke-width="2"/>
    </g>
  </g>

  <!-- ================= STAT CARDS ================= -->
  <!-- card 1 : Total Laporan -->
  <g transform="translate(280,112)">
    <rect x="0" y="0" width="306" height="120" rx="14" fill="#ffffff" stroke="#e7eaf2" stroke-width="1" filter="url(#sh)"/>
    <rect x="24" y="24" width="44" height="44" rx="12" fill="#f472b6" fill-opacity="0.14"/>
    <g transform="translate(36,36)" stroke="#f472b6" stroke-width="2" fill="none" stroke-linecap="round" stroke-linejoin="round">
      <path d="M2 0 H13 L19 6 V20 H2 Z"/>
      <path d="M13 0 V6 H19"/>
      <path d="M6 11 H15 M6 15 H12"/>
    </g>
    <text x="92" y="46" font-size="12.5" fill="#8b92a4">Total Laporan</text>
    <text x="92" y="74" font-size="28" font-weight="700" fill="#f472b6">348</text>
    <g transform="translate(232,52)">
      <rect x="0" y="0" width="50" height="22" rx="8" fill="#16a34a" fill-opacity="0.14"/>
      <text x="25" y="15" font-size="11" font-weight="600" fill="#16a34a" text-anchor="middle">+12%</text>
    </g>
  </g>

  <!-- card 2 : Kehadiran -->
  <g transform="translate(607,112)">
    <rect x="0" y="0" width="306" height="120" rx="14" fill="#ffffff" stroke="#e7eaf2" stroke-width="1" filter="url(#sh)"/>
    <rect x="24" y="24" width="44" height="44" rx="12" fill="#f472b6" fill-opacity="0.14"/>
    <g transform="translate(36,36)" stroke="#f472b6" stroke-width="2" fill="none" stroke-linecap="round" stroke-linejoin="round">
      <rect x="1" y="2" width="18" height="18" rx="3"/>
      <path d="M1 7 H19 M6 0 V4 M14 0 V4"/>
      <path d="M6 13 l2.4 2.4 L13 11"/>
    </g>
    <text x="92" y="46" font-size="12.5" fill="#8b92a4">Kehadiran</text>
    <text x="92" y="74" font-size="28" font-weight="700" fill="#f472b6">92%</text>
    <g transform="translate(232,52)">
      <rect x="0" y="0" width="50" height="22" rx="8" fill="#16a34a" fill-opacity="0.14"/>
      <text x="25" y="15" font-size="11" font-weight="600" fill="#16a34a" text-anchor="middle">+4%</text>
    </g>
  </g>

  <!-- card 3 : Anggota -->
  <g transform="translate(934,112)">
    <rect x="0" y="0" width="306" height="120" rx="14" fill="#ffffff" stroke="#e7eaf2" stroke-width="1" filter="url(#sh)"/>
    <rect x="24" y="24" width="44" height="44" rx="12" fill="#f472b6" fill-opacity="0.14"/>
    <g transform="translate(36,38)" stroke="#f472b6" stroke-width="2" fill="none" stroke-linecap="round" stroke-linejoin="round">
      <circle cx="7" cy="5" r="4"/>
      <path d="M0 19 c0-5 3-7 7-7 s7 2 7 7"/>
      <circle cx="17" cy="6" r="3"/>
      <path d="M15 19 c0-4 2-5 5-5"/>
    </g>
    <text x="92" y="46" font-size="12.5" fill="#8b92a4">Anggota</text>
    <text x="92" y="74" font-size="28" font-weight="700" fill="#f472b6">64</text>
    <g transform="translate(232,52)">
      <rect x="0" y="0" width="58" height="22" rx="8" fill="#f59e0b" fill-opacity="0.14"/>
      <text x="29" y="15" font-size="11" font-weight="600" fill="#f59e0b" text-anchor="middle">aktif</text>
    </g>
  </g>

  <!-- ================= CHART CARD ================= -->
  <g transform="translate(280,256)">
    <rect x="0" y="0" width="600" height="416" rx="14" fill="#ffffff" stroke="#e7eaf2" stroke-width="1" filter="url(#sh)"/>
    <text x="24" y="40" font-size="15" font-weight="700" fill="#0d1320">Laporan per Bulan</text>
    <text x="24" y="60" font-size="11.5" fill="#8b92a4">Periode Januari - Agustus 2026</text>

    <!-- legend -->
    <g transform="translate(440,30)">
      <rect x="0" y="0" width="12" height="12" rx="3" fill="#f472b6"/>
      <text x="18" y="10" font-size="11" fill="#8b92a4">Laporan</text>
      <line x1="86" y1="6" x2="104" y2="6" stroke="#f472b6" stroke-width="2"/>
      <circle cx="95" cy="6" r="2.5" fill="#f472b6"/>
      <text x="110" y="10" font-size="11" fill="#8b92a4">Tren</text>
    </g>

    <!-- plot area : x 60..576 , baseline y=340 , top y=110 -->
    <!-- gridlines -->
    <g stroke="#eef1f6" stroke-width="1">
      <line x1="60" y1="110" x2="576" y2="110"/>
      <line x1="60" y1="167" x2="576" y2="167"/>
      <line x1="60" y1="224" x2="576" y2="224"/>
      <line x1="60" y1="281" x2="576" y2="281"/>
      <line x1="60" y1="340" x2="576" y2="340"/>
    </g>
    <!-- y axis labels -->
    <g font-size="10" fill="#aeb4c4" text-anchor="end">
      <text x="48" y="114">60</text>
      <text x="48" y="171">45</text>
      <text x="48" y="228">30</text>
      <text x="48" y="285">15</text>
      <text x="48" y="344">0</text>
    </g>

    <!-- bars (8) : slot width 58, bar width 30 -->
    <g fill="#f472b6" fill-opacity="0.85">
      <rect x="71"  y="248" width="30" height="92"  rx="6"/>
      <rect x="135" y="206" width="30" height="134" rx="6"/>
      <rect x="199" y="224" width="30" height="116" rx="6"/>
      <rect x="263" y="170" width="30" height="170" rx="6"/>
      <rect x="327" y="196" width="30" height="144" rx="6"/>
      <rect x="391" y="146" width="30" height="194" rx="6"/>
      <rect x="455" y="184" width="30" height="156" rx="6"/>
      <rect x="519" y="128" width="30" height="212" rx="6"/>
    </g>

    <!-- trend polyline over bar centers (x = slotx+15) -->
    <polyline points="86,256 150,214 214,232 278,178 342,204 406,154 470,192 534,136"
      fill="none" stroke="#f472b6" stroke-width="2.5" stroke-linecap="round" stroke-linejoin="round"/>
    <g fill="#ffffff" stroke="#f472b6" stroke-width="2.5">
      <circle cx="86"  cy="256" r="3.5"/>
      <circle cx="150" cy="214" r="3.5"/>
      <circle cx="214" cy="232" r="3.5"/>
      <circle cx="278" cy="178" r="3.5"/>
      <circle cx="342" cy="204" r="3.5"/>
      <circle cx="406" cy="154" r="3.5"/>
      <circle cx="470" cy="192" r="3.5"/>
      <circle cx="534" cy="136" r="3.5"/>
    </g>

    <!-- x axis labels -->
    <g font-size="10.5" fill="#8b92a4" text-anchor="middle">
      <text x="86"  y="362">Jan</text>
      <text x="150" y="362">Feb</text>
      <text x="214" y="362">Mar</text>
      <text x="278" y="362">Apr</text>
      <text x="342" y="362">Mei</text>
      <text x="406" y="362">Jun</text>
      <text x="470" y="362">Jul</text>
      <text x="534" y="362">Agu</text>
    </g>
  </g>

  <!-- ================= ABSENSI LIST CARD ================= -->
  <g transform="translate(904,256)">
    <rect x="0" y="0" width="336" height="416" rx="14" fill="#ffffff" stroke="#e7eaf2" stroke-width="1" filter="url(#sh)"/>
    <text x="24" y="40" font-size="15" font-weight="700" fill="#0d1320">Absensi Anggota</text>
    <text x="24" y="60" font-size="11.5" fill="#8b92a4">Hari ini</text>

    <!-- row template -->
    <!-- row 1 Andi Saputra - Hadir -->
    <g transform="translate(24,84)">
      <circle cx="22" cy="22" r="20" fill="#f472b6" fill-opacity="0.14"/>
      <g transform="translate(22,22)" stroke="#f472b6" stroke-width="2" fill="none" stroke-linecap="round">
        <circle cx="0" cy="-4" r="5"/><path d="M-8 11 c0-5 4-7 8-7 s8 2 8 7"/>
      </g>
      <text x="56" y="18" font-size="13" font-weight="600" fill="#0d1320">Andi Saputra</text>
      <text x="56" y="35" font-size="11" fill="#8b92a4">Anggota / Staf</text>
      <g transform="translate(208,11)">
        <rect x="0" y="0" width="64" height="22" rx="8" fill="#16a34a" fill-opacity="0.14"/>
        <text x="36" y="15" font-size="11" font-weight="600" fill="#16a34a" text-anchor="middle">Hadir</text>
        <circle cx="14" cy="11" r="3" fill="#16a34a"/>
      </g>
    </g>
    <line x1="24" y1="156" x2="312" y2="156" stroke="#eef1f6" stroke-width="1"/>

    <!-- row 2 Rina Wijaya - Hadir -->
    <g transform="translate(24,168)">
      <circle cx="22" cy="22" r="20" fill="#f472b6" fill-opacity="0.14"/>
      <g transform="translate(22,22)" stroke="#f472b6" stroke-width="2" fill="none" stroke-linecap="round">
        <circle cx="0" cy="-4" r="5"/><path d="M-8 11 c0-5 4-7 8-7 s8 2 8 7"/>
      </g>
      <text x="56" y="18" font-size="13" font-weight="600" fill="#0d1320">Rina Wijaya</text>
      <text x="56" y="35" font-size="11" fill="#8b92a4">Anggota / Staf</text>
      <g transform="translate(208,11)">
        <rect x="0" y="0" width="64" height="22" rx="8" fill="#16a34a" fill-opacity="0.14"/>
        <text x="36" y="15" font-size="11" font-weight="600" fill="#16a34a" text-anchor="middle">Hadir</text>
        <circle cx="14" cy="11" r="3" fill="#16a34a"/>
      </g>
    </g>
    <line x1="24" y1="240" x2="312" y2="240" stroke="#eef1f6" stroke-width="1"/>

    <!-- row 3 Budi Santoso - Izin -->
    <g transform="translate(24,252)">
      <circle cx="22" cy="22" r="20" fill="#f472b6" fill-opacity="0.14"/>
      <g transform="translate(22,22)" stroke="#f472b6" stroke-width="2" fill="none" stroke-linecap="round">
        <circle cx="0" cy="-4" r="5"/><path d="M-8 11 c0-5 4-7 8-7 s8 2 8 7"/>
      </g>
      <text x="56" y="18" font-size="13" font-weight="600" fill="#0d1320">Budi Santoso</text>
      <text x="56" y="35" font-size="11" fill="#8b92a4">Anggota / Staf</text>
      <g transform="translate(216,11)">
        <rect x="0" y="0" width="56" height="22" rx="8" fill="#f59e0b" fill-opacity="0.14"/>
        <text x="34" y="15" font-size="11" font-weight="600" fill="#f59e0b" text-anchor="middle">Izin</text>
        <circle cx="14" cy="11" r="3" fill="#f59e0b"/>
      </g>
    </g>
    <line x1="24" y1="324" x2="312" y2="324" stroke="#eef1f6" stroke-width="1"/>

    <!-- row 4 Siti Nurhaliza - Hadir -->
    <g transform="translate(24,336)">
      <circle cx="22" cy="22" r="20" fill="#f472b6" fill-opacity="0.14"/>
      <g transform="translate(22,22)" stroke="#f472b6" stroke-width="2" fill="none" stroke-linecap="round">
        <circle cx="0" cy="-4" r="5"/><path d="M-8 11 c0-5 4-7 8-7 s8 2 8 7"/>
      </g>
      <text x="56" y="18" font-size="13" font-weight="600" fill="#0d1320">Siti Nurhaliza</text>
      <text x="56" y="35" font-size="11" fill="#8b92a4">Anggota / Staf</text>
      <g transform="translate(208,11)">
        <rect x="0" y="0" width="64" height="22" rx="8" fill="#16a34a" fill-opacity="0.14"/>
        <text x="36" y="15" font-size="11" font-weight="600" fill="#16a34a" text-anchor="middle">Hadir</text>
        <circle cx="14" cy="11" r="3" fill="#16a34a"/>
      </g>
    </g>
  </g>
</svg>
