<svg viewBox="0 0 1280 800" width="100%" height="100%" xmlns="http://www.w3.org/2000/svg" font-family="Inter, system-ui, -apple-system, sans-serif">
  <defs>
    <linearGradient id="bg" x1="0" y1="0" x2="1" y2="1">
      <stop offset="0" stop-color="#eef1f8"/>
      <stop offset="1" stop-color="#e4e8f3"/>
    </linearGradient>
    <filter id="sh" x="-20%" y="-20%" width="140%" height="140%">
      <feDropShadow dx="0" dy="8" stdDeviation="14" flood-color="#1f2650" flood-opacity="0.10"/>
    </filter>
  </defs>

  <!-- Background -->
  <rect width="1280" height="800" fill="url(#bg)"/>

  <!-- ===================== SIDEBAR ===================== -->
  <rect x="0" y="0" width="240" height="800" fill="#ffffff"/>
  <line x1="240" y1="0" x2="240" y2="800" stroke="#e7eaf2" stroke-width="1"/>

  <!-- Logo -->
  <rect x="24" y="26" width="36" height="36" rx="10" fill="#6d5efc"/>
  <g stroke="#ffffff" stroke-width="2" fill="none" stroke-linecap="round" stroke-linejoin="round">
    <path d="M34 52 L34 36 L42 32 L50 36 L50 52"/>
    <path d="M34 44 L50 44"/>
  </g>
  <text x="72" y="49" font-size="18" font-weight="700" fill="#0d1320">PHH</text>

  <!-- Nav: Dashboard (active) -->
  <rect x="16" y="96" width="208" height="44" rx="11" fill="#6d5efc" fill-opacity="0.14"/>
  <g stroke="#6d5efc" stroke-width="2" fill="none" stroke-linecap="round" stroke-linejoin="round">
    <rect x="36" y="108" width="8" height="8" rx="1.5"/>
    <rect x="48" y="108" width="8" height="8" rx="1.5"/>
    <rect x="36" y="120" width="8" height="8" rx="1.5"/>
    <rect x="48" y="120" width="8" height="8" rx="1.5"/>
  </g>
  <text x="72" y="123" font-size="14" font-weight="600" fill="#6d5efc">Dashboard</text>

  <!-- Nav: Inventory -->
  <g stroke="#8b92a4" stroke-width="2" fill="none" stroke-linecap="round" stroke-linejoin="round">
    <path d="M36 160 l8 -4 8 4 v9 l-8 4 -8 -4 z"/>
    <path d="M36 160 l8 4 8 -4 M44 164 v9"/>
  </g>
  <text x="72" y="171" font-size="14" font-weight="500" fill="#8b92a4">Inventory</text>

  <!-- Nav: Cutting -->
  <g stroke="#8b92a4" stroke-width="2" fill="none" stroke-linecap="round" stroke-linejoin="round">
    <circle cx="39" cy="205" r="4"/>
    <circle cx="39" cy="221" r="4"/>
    <path d="M42 202 L53 216 M42 224 L53 210"/>
  </g>
  <text x="72" y="218" font-size="14" font-weight="500" fill="#8b92a4">Cutting</text>

  <!-- Nav: Orders -->
  <g stroke="#8b92a4" stroke-width="2" fill="none" stroke-linecap="round" stroke-linejoin="round">
    <path d="M36 254 h4 l2 14 h12 l2 -10 h-15"/>
    <circle cx="44" cy="272" r="1.6" fill="#8b92a4"/>
    <circle cx="52" cy="272" r="1.6" fill="#8b92a4"/>
  </g>
  <text x="72" y="266" font-size="14" font-weight="500" fill="#8b92a4">Orders</text>

  <!-- Nav: Reports -->
  <g stroke="#8b92a4" stroke-width="2" fill="none" stroke-linecap="round" stroke-linejoin="round">
    <path d="M38 300 v16 h16"/>
    <path d="M42 312 l4 -5 4 3 4 -7"/>
  </g>
  <text x="72" y="313" font-size="14" font-weight="500" fill="#8b92a4">Reports</text>

  <!-- Nav: Settings -->
  <g stroke="#8b92a4" stroke-width="2" fill="none" stroke-linecap="round" stroke-linejoin="round">
    <circle cx="46" cy="360" r="3.5"/>
    <path d="M46 350 v3 M46 367 v3 M36 360 h3 M53 360 h3 M39 353 l2 2 M51 367 l2 2 M53 353 l-2 2 M41 367 l-2 2"/>
  </g>
  <text x="72" y="365" font-size="14" font-weight="500" fill="#8b92a4">Settings</text>

  <!-- Sidebar footer card -->
  <rect x="16" y="704" width="208" height="72" rx="12" fill="#6d5efc" fill-opacity="0.07"/>
  <circle cx="48" cy="740" r="16" fill="#6d5efc" fill-opacity="0.18"/>
  <g stroke="#6d5efc" stroke-width="2" fill="none" stroke-linecap="round" stroke-linejoin="round">
    <circle cx="48" cy="735" r="4"/>
    <path d="M40 748 c2 -5 14 -5 16 0"/>
  </g>
  <text x="76" y="736" font-size="13" font-weight="600" fill="#0d1320">Workshop A</text>
  <text x="76" y="752" font-size="11" fill="#8b92a4">Admin access</text>

  <!-- ===================== TOP BAR ===================== -->
  <text x="272" y="56" font-size="24" font-weight="700" fill="#0d1320">Inventory</text>

  <!-- Search field -->
  <rect x="868" y="32" width="240" height="40" rx="11" fill="#ffffff" stroke="#e7eaf2" stroke-width="1"/>
  <g stroke="#aeb4c4" stroke-width="2" fill="none" stroke-linecap="round" stroke-linejoin="round">
    <circle cx="890" cy="52" r="6"/>
    <path d="M895 57 l5 5"/>
  </g>
  <text x="910" y="57" font-size="13" fill="#aeb4c4">Search items...</text>

  <!-- Bell -->
  <rect x="1124" y="32" width="40" height="40" rx="11" fill="#ffffff" stroke="#e7eaf2" stroke-width="1"/>
  <g stroke="#8b92a4" stroke-width="2" fill="none" stroke-linecap="round" stroke-linejoin="round">
    <path d="M1138 56 c0 -8 4 -11 6 -11 s6 3 6 11 c0 2 2 3 2 3 h-16 s2 -1 2 -3 z"/>
    <path d="M1142 62 a2 2 0 0 0 4 0"/>
  </g>
  <circle cx="1152" cy="42" r="4" fill="#ef4444"/>

  <!-- Avatar -->
  <circle cx="1198" cy="52" r="20" fill="#6d5efc" fill-opacity="0.16"/>
  <g stroke="#6d5efc" stroke-width="2" fill="none" stroke-linecap="round" stroke-linejoin="round">
    <circle cx="1198" cy="46" r="5"/>
    <path d="M1188 62 c2 -7 18 -7 20 0"/>
  </g>

  <!-- ===================== STAT CARDS ===================== -->
  <!-- Card 1: Total Stock -->
  <g filter="url(#sh)">
    <rect x="272" y="96" width="232" height="120" rx="14" fill="#ffffff" stroke="#e7eaf2" stroke-width="1"/>
  </g>
  <rect x="296" y="120" width="40" height="40" rx="11" fill="#6d5efc" fill-opacity="0.14"/>
  <g stroke="#6d5efc" stroke-width="2" fill="none" stroke-linecap="round" stroke-linejoin="round">
    <path d="M308 138 l8 -4 8 4 v9 l-8 4 -8 -4 z"/>
    <path d="M308 138 l8 4 8 -4 M316 142 v9"/>
  </g>
  <text x="296" y="186" font-size="13" fill="#8b92a4">Total Stock</text>
  <text x="296" y="208" font-size="26" font-weight="700" fill="#6d5efc">1,240</text>
  <g stroke="#16a34a" stroke-width="2" fill="none" stroke-linecap="round" stroke-linejoin="round">
    <path d="M452 196 l5 -5 5 5 M457 191 v12"/>
  </g>
  <text x="466" y="204" font-size="12" font-weight="600" fill="#16a34a">8%</text>

  <!-- Card 2: Low Stock -->
  <g filter="url(#sh)">
    <rect x="520" y="96" width="232" height="120" rx="14" fill="#ffffff" stroke="#e7eaf2" stroke-width="1"/>
  </g>
  <rect x="544" y="120" width="40" height="40" rx="11" fill="#f59e0b" fill-opacity="0.14"/>
  <g stroke="#f59e0b" stroke-width="2" fill="none" stroke-linecap="round" stroke-linejoin="round">
    <path d="M564 130 l9 16 h-18 z"/>
    <path d="M564 137 v5 M564 144 v0.5"/>
  </g>
  <text x="544" y="186" font-size="13" fill="#8b92a4">Low Stock</text>
  <text x="544" y="208" font-size="26" font-weight="700" fill="#6d5efc">18</text>
  <g stroke="#ef4444" stroke-width="2" fill="none" stroke-linecap="round" stroke-linejoin="round">
    <path d="M700 196 l5 5 5 -5 M705 201 v-12"/>
  </g>
  <text x="714" y="204" font-size="12" font-weight="600" fill="#ef4444">3%</text>

  <!-- Card 3: Cuts Today -->
  <g filter="url(#sh)">
    <rect x="768" y="96" width="232" height="120" rx="14" fill="#ffffff" stroke="#e7eaf2" stroke-width="1"/>
  </g>
  <rect x="792" y="120" width="40" height="40" rx="11" fill="#6d5efc" fill-opacity="0.14"/>
  <g stroke="#6d5efc" stroke-width="2" fill="none" stroke-linecap="round" stroke-linejoin="round">
    <circle cx="807" cy="135" r="3.5"/>
    <circle cx="807" cy="147" r="3.5"/>
    <path d="M810 132 L821 145 M810 150 L821 138"/>
  </g>
  <text x="792" y="186" font-size="13" fill="#8b92a4">Cuts Today</text>
  <text x="792" y="208" font-size="26" font-weight="700" fill="#6d5efc">56</text>
  <g stroke="#16a34a" stroke-width="2" fill="none" stroke-linecap="round" stroke-linejoin="round">
    <path d="M948 196 l5 -5 5 5 M953 191 v12"/>
  </g>
  <text x="962" y="204" font-size="12" font-weight="600" fill="#16a34a">12%</text>

  <!-- Card 4: Orders -->
  <g filter="url(#sh)">
    <rect x="1016" y="96" width="232" height="120" rx="14" fill="#ffffff" stroke="#e7eaf2" stroke-width="1"/>
  </g>
  <rect x="1040" y="120" width="40" height="40" rx="11" fill="#6d5efc" fill-opacity="0.14"/>
  <g stroke="#6d5efc" stroke-width="2" fill="none" stroke-linecap="round" stroke-linejoin="round">
    <path d="M1052 132 h4 l2 14 h12 l2 -10 h-15"/>
    <circle cx="1060" cy="150" r="1.6" fill="#6d5efc"/>
    <circle cx="1068" cy="150" r="1.6" fill="#6d5efc"/>
  </g>
  <text x="1040" y="186" font-size="13" fill="#8b92a4">Orders</text>
  <text x="1040" y="208" font-size="26" font-weight="700" fill="#6d5efc">32</text>
  <g stroke="#16a34a" stroke-width="2" fill="none" stroke-linecap="round" stroke-linejoin="round">
    <path d="M1196 196 l5 -5 5 5 M1201 191 v12"/>
  </g>
  <text x="1210" y="204" font-size="12" font-weight="600" fill="#16a34a">5%</text>

  <!-- ===================== BAR CHART CARD ===================== -->
  <g filter="url(#sh)">
    <rect x="272" y="240" width="488" height="320" rx="14" fill="#ffffff" stroke="#e7eaf2" stroke-width="1"/>
  </g>
  <text x="296" y="276" font-size="16" font-weight="700" fill="#0d1320">Stock movement</text>
  <text x="296" y="296" font-size="12" fill="#8b92a4">Units moved this week</text>
  <rect x="652" y="258" width="84" height="28" rx="9" fill="#6d5efc" fill-opacity="0.14"/>
  <text x="668" y="276" font-size="12" font-weight="600" fill="#6d5efc">Weekly</text>

  <!-- gridlines -->
  <g stroke="#eef1f8" stroke-width="1">
    <line x1="296" y1="350" x2="736" y2="350"/>
    <line x1="296" y1="404" x2="736" y2="404"/>
    <line x1="296" y1="458" x2="736" y2="458"/>
    <line x1="296" y1="512" x2="736" y2="512"/>
  </g>

  <!-- bars (baseline y=512) -->
  <g>
    <rect x="312" y="392" width="40" height="120" rx="6" fill="#6d5efc" fill-opacity="0.30"/>
    <rect x="372" y="340" width="40" height="172" rx="6" fill="#6d5efc"/>
    <rect x="432" y="420" width="40" height="92" rx="6" fill="#6d5efc" fill-opacity="0.30"/>
    <rect x="492" y="366" width="40" height="146" rx="6" fill="#6d5efc" fill-opacity="0.30"/>
    <rect x="552" y="318" width="40" height="194" rx="6" fill="#6d5efc"/>
    <rect x="612" y="400" width="40" height="112" rx="6" fill="#6d5efc" fill-opacity="0.30"/>
    <rect x="672" y="358" width="40" height="154" rx="6" fill="#6d5efc" fill-opacity="0.30"/>
  </g>

  <!-- x labels -->
  <g font-size="11" fill="#aeb4c4" text-anchor="middle">
    <text x="332" y="534">Mon</text>
    <text x="392" y="534">Tue</text>
    <text x="452" y="534">Wed</text>
    <text x="512" y="534">Thu</text>
    <text x="572" y="534">Fri</text>
    <text x="632" y="534">Sat</text>
    <text x="692" y="534">Sun</text>
  </g>

  <!-- ===================== SIDE MINI CARDS ===================== -->
  <!-- Capacity card -->
  <g filter="url(#sh)">
    <rect x="776" y="240" width="472" height="152" rx="14" fill="#ffffff" stroke="#e7eaf2" stroke-width="1"/>
  </g>
  <text x="800" y="276" font-size="16" font-weight="700" fill="#0d1320">Warehouse capacity</text>
  <text x="800" y="312" font-size="32" font-weight="700" fill="#6d5efc">74%</text>
  <text x="868" y="312" font-size="12" fill="#8b92a4">of 1,680 slots used</text>
  <rect x="800" y="338" width="424" height="12" rx="6" fill="#eef1f8"/>
  <rect x="800" y="338" width="314" height="12" rx="6" fill="#6d5efc"/>
  <g font-size="11" fill="#aeb4c4">
    <text x="800" y="372">0</text>
    <text x="1208" y="372" text-anchor="end">1,680</text>
  </g>

  <!-- Pending cuts card -->
  <g filter="url(#sh)">
    <rect x="776" y="408" width="228" height="152" rx="14" fill="#ffffff" stroke="#e7eaf2" stroke-width="1"/>
  </g>
  <rect x="800" y="432" width="38" height="38" rx="11" fill="#f59e0b" fill-opacity="0.14"/>
  <g stroke="#f59e0b" stroke-width="2" fill="none" stroke-linecap="round" stroke-linejoin="round">
    <circle cx="819" cy="451" r="9"/>
    <path d="M819 446 v5 l3 3"/>
  </g>
  <text x="800" y="500" font-size="13" fill="#8b92a4">Pending cuts</text>
  <text x="800" y="528" font-size="24" font-weight="700" fill="#6d5efc">9</text>
  <rect x="800" y="540" width="86" height="22" rx="7" fill="#f59e0b" fill-opacity="0.14"/>
  <text x="813" y="555" font-size="11" font-weight="600" fill="#f59e0b">In queue</text>

  <!-- Completed card -->
  <g filter="url(#sh)">
    <rect x="1020" y="408" width="228" height="152" rx="14" fill="#ffffff" stroke="#e7eaf2" stroke-width="1"/>
  </g>
  <rect x="1044" y="432" width="38" height="38" rx="11" fill="#16a34a" fill-opacity="0.14"/>
  <g stroke="#16a34a" stroke-width="2" fill="none" stroke-linecap="round" stroke-linejoin="round">
    <circle cx="1063" cy="451" r="9"/>
    <path d="M1059 451 l3 3 5 -6"/>
  </g>
  <text x="1044" y="500" font-size="13" fill="#8b92a4">Completed</text>
  <text x="1044" y="528" font-size="24" font-weight="700" fill="#6d5efc">47</text>
  <rect x="1044" y="540" width="76" height="22" rx="7" fill="#16a34a" fill-opacity="0.14"/>
  <text x="1057" y="555" font-size="11" font-weight="600" fill="#16a34a">Today</text>

  <!-- ===================== TABLE CARD ===================== -->
  <g filter="url(#sh)">
    <rect x="272" y="584" width="976" height="192" rx="14" fill="#ffffff" stroke="#e7eaf2" stroke-width="1"/>
  </g>
  <text x="296" y="616" font-size="16" font-weight="700" fill="#0d1320">Steel items</text>
  <rect x="1140" y="598" width="84" height="28" rx="9" fill="#6d5efc"/>
  <g stroke="#ffffff" stroke-width="2" fill="none" stroke-linecap="round" stroke-linejoin="round">
    <path d="M1156 612 h10 M1161 607 v10"/>
  </g>
  <text x="1172" y="616" font-size="12" font-weight="600" fill="#ffffff">Add</text>

  <!-- table header -->
  <line x1="296" y1="634" x2="1224" y2="634" stroke="#eef1f8" stroke-width="1"/>
  <g font-size="11" font-weight="600" fill="#aeb4c4" letter-spacing="0.4">
    <text x="296" y="652">ITEM</text>
    <text x="640" y="652">SIZE</text>
    <text x="840" y="652">QTY</text>
    <text x="1020" y="652">STATUS</text>
  </g>
  <line x1="296" y1="662" x2="1224" y2="662" stroke="#eef1f8" stroke-width="1"/>

  <!-- Row 1: Plat Baja -->
  <g font-size="13" fill="#0d1320">
    <text x="296" y="685" font-weight="600">Plat Baja</text>
    <text x="640" y="685" fill="#8b92a4">4x8</text>
    <text x="840" y="685" font-weight="600">120</text>
  </g>
  <rect x="1020" y="672" width="84" height="22" rx="7" fill="#16a34a" fill-opacity="0.14"/>
  <text x="1033" y="687" font-size="11" font-weight="600" fill="#16a34a">In Stock</text>
  <line x1="296" y1="698" x2="1224" y2="698" stroke="#eef1f8" stroke-width="1"/>

  <!-- Row 2: Pipa Hollow -->
  <g font-size="13" fill="#0d1320">
    <text x="296" y="717" font-weight="600">Pipa Hollow</text>
    <text x="640" y="717" fill="#8b92a4">40x40</text>
    <text x="840" y="717" font-weight="600">12</text>
  </g>
  <rect x="1020" y="704" width="60" height="22" rx="7" fill="#f59e0b" fill-opacity="0.14"/>
  <text x="1033" y="719" font-size="11" font-weight="600" fill="#f59e0b">Low</text>
  <line x1="296" y1="730" x2="1224" y2="730" stroke="#eef1f8" stroke-width="1"/>

  <!-- Row 3: Besi Beton -->
  <g font-size="13" fill="#0d1320">
    <text x="296" y="749" font-weight="600">Besi Beton</text>
    <text x="640" y="749" fill="#8b92a4">10mm</text>
    <text x="840" y="749" font-weight="600">0</text>
  </g>
  <rect x="1020" y="736" width="56" height="22" rx="7" fill="#ef4444" fill-opacity="0.14"/>
  <text x="1033" y="751" font-size="11" font-weight="600" fill="#ef4444">Out</text>
  <line x1="296" y1="762" x2="1224" y2="762" stroke="#eef1f8" stroke-width="1"/>

  <!-- Row 4: Siku Baja -->
  <g font-size="13" fill="#0d1320">
    <text x="296" y="781" font-weight="600">Siku Baja</text>
    <text x="640" y="781" fill="#8b92a4">50x50</text>
    <text x="840" y="781" font-weight="600">86</text>
  </g>
  <rect x="1020" y="768" width="84" height="22" rx="7" fill="#16a34a" fill-opacity="0.14"/>
  <text x="1033" y="783" font-size="11" font-weight="600" fill="#16a34a">In Stock</text>
</svg>
